<svg width="23" height="23" viewBox="0 0 23 23" fill="none" xmlns="http://www.w3.org/2000/svg">
<g clip-path="url(#clip0_0_633)" filter="url(#filter0_d_0_633)">
<path d="M18.4444 7.72076C18.4444 3.73203 15.2109 0.498535 11.2222 0.498535C7.2335 0.498535 4 3.73203 4 7.72076C4 11.3255 6.64105 14.3134 10.0938 14.8552V9.80843H8.25998V7.72076H10.0938V6.12961C10.0938 4.31954 11.172 3.31972 12.8217 3.31972C13.6116 3.31972 14.4384 3.46077 14.4384 3.46077V5.23812H13.5277C12.6306 5.23812 12.3507 5.79488 12.3507 6.36659V7.72076H14.3537L14.0335 9.80843H12.3507V14.8552C15.8034 14.3134 18.4444 11.3255 18.4444 7.72076Z" fill="white"/>
</g>
<defs>
<filter id="filter0_d_0_633" x="0" y="0.498535" width="22.4443" height="22.4443" filterUnits="userSpaceOnUse" color-interpolation-filters="sRGB">
<feFlood flood-opacity="0" result="BackgroundImageFix"/>
<feColorMatrix in="SourceAlpha" type="matrix" values="0 0 0 0 0 0 0 0 0 0 0 0 0 0 0 0 0 0 127 0" result="hardAlpha"/>
<feOffset dy="4"/>
<feGaussianBlur stdDeviation="2"/>
<feComposite in2="hardAlpha" operator="out"/>
<feColorMatrix type="matrix" values="0 0 0 0 0 0 0 0 0 0 0 0 0 0 0 0 0 0 0.25 0"/>
<feBlend mode="normal" in2="BackgroundImageFix" result="effect1_dropShadow_0_633"/>
<feBlend mode="normal" in="SourceGraphic" in2="effect1_dropShadow_0_633" result="shape"/>
</filter>
<clipPath id="clip0_0_633">
<rect width="14.4444" height="14.4444" fill="white" transform="translate(4 0.498535)"/>
</clipPath>
</defs>
</svg>
